<svg width="240" height="240" viewBox="0 0 240 240" fill="none" xmlns="http://www.w3.org/2000/svg">
<path fill-rule="evenodd" clip-rule="evenodd" d="M24 48C35.183 48 44.5796 40.3514 47.2439 30H96.7561C99.4204 40.3514 108.817 48 120 48C133.255 48 144 37.2548 144 24C144 10.7452 133.255 0 120 0C109.18 0 100.033 7.15981 97.0369 17H46.9631C43.9673 7.15981 34.8198 0 24 0C10.7452 0 0 10.7452 0 24C0 37.2548 10.7452 48 24 48ZM240 24C240 37.2548 229.255 48 216 48C202.745 48 192 37.2548 192 24C192 10.7452 202.745 0 216 0C229.255 0 240 10.7452 240 24ZM24 144C37.2548 144 48 133.255 48 120C48 106.745 37.2548 96 24 96C10.7452 96 0 106.745 0 120C0 133.255 10.7452 144 24 144ZM126 143.244C134.434 141.073 141.073 134.434 143.244 126H192.756C195.42 136.351 204.817 144 216 144C229.255 144 240 133.255 240 120C240 106.745 229.255 96 216 96C205.18 96 196.033 103.16 193.037 113H142.963C139.967 103.16 130.82 96 120 96C106.745 96 96 106.745 96 120C96 130.82 103.16 139.967 113 142.963V193.037C103.16 196.033 96 205.18 96 216C96 229.255 106.745 240 120 240C133.255 240 144 229.255 144 216C144 204.817 136.351 195.42 126 192.756V143.244ZM48 216C48 229.255 37.2548 240 24 240C10.7452 240 0 229.255 0 216C0 202.745 10.7452 192 24 192C37.2548 192 48 202.745 48 216ZM240 216C240 229.255 229.255 240 216 240C202.745 240 192 229.255 192 216C192 202.745 202.745 192 216 192C229.255 192 240 202.745 240 216Z" fill="black"/>
</svg>
